<?xml version="1.0" standalone="no"?>
<svg xmlns:xlink="http://www.w3.org/1999/xlink" width="128" height="128" viewBox="0 0 24 24" xmlns="http://www.w3.org/2000/svg" fill="none">

<g clip-path="url(#a)" fill="#f2f2f2" style="">

<path stroke="#f2f2f2" stroke-linecap="round" stroke-linejoin="round" stroke-width="2" d="m11.607 6.535-7.779 7.779a2 2 0 0 0 0 2.828l1.536 1.536a2 2 0 0 0 1.414.585h6.243M11.607 6.535l2.12-2.12a2 2 0 0 1 2.83 0l4.242 4.242a2 2 0 0 1 0 2.828l-2.121 2.122m-7.071-7.072 7.07 7.072m0 0-5.656 5.656m0 0H20" style=""/>

</g>

<defs fill="#f2f2f2" style="">

<clipPath id="a" fill="#f2f2f2" style="">

<path fill="#f2f2f2" d="M0 0h24v24H0z" style=""/>

</clipPath>

</defs>

</svg>