<svg width="256" height="256" viewBox="0 0 448 512" xmlns="http://www.w3.org/2000/svg"><rect x="0" y="0" width="448" height="512" rx="8" fill="none"/><svg xmlns="http://www.w3.org/2000/svg" viewBox="0 0 448 512" fill="#f2f2f2" x="0" y="0" width="448" height="512"><path fill="#f2f2f2" d="M384 80c8.8 0 16 7.2 16 16v320c0 8.8-7.2 16-16 16H64c-8.8 0-16-7.2-16-16V96c0-8.8 7.2-16 16-16h320zM64 32C28.7 32 0 60.7 0 96v320c0 35.3 28.7 64 64 64h320c35.3 0 64-28.7 64-64V96c0-35.3-28.7-64-64-64H64z"/></svg></svg>